<?xml version="1.0" encoding="UTF-8" standalone="no"?>
<svg
   xmlns:dc="http://purl.org/dc/elements/1.1/"
   xmlns:cc="http://creativecommons.org/ns#"
   xmlns:rdf="http://www.w3.org/1999/02/22-rdf-syntax-ns#"
   xmlns:svg="http://www.w3.org/2000/svg"
   xmlns="http://www.w3.org/2000/svg"
   version="1.1"
   id="Layer_1"
   x="0px"
   y="0px"
   viewBox="0 0 617 146"
   xml:space="preserve"
   width="617"
   height="146"><metadata
     id="metadata188"><rdf:RDF><cc:Work
         rdf:about=""><dc:format>image/svg+xml</dc:format><dc:type
           rdf:resource="http://purl.org/dc/dcmitype/StillImage" /><dc:title></dc:title></cc:Work></rdf:RDF></metadata><defs
     id="defs186" /><style
     type="text/css"
     id="style3">
	.st0{fill:#465777;}
	.st1{fill:#FCA53D;}
	.st2{opacity:0.8;}
	.st3{fill:#FFFFFF;}
</style><g
     id="XMLID_397_"
     transform="translate(1536.2,-232.8)"><g
       id="XMLID_123_"><g
         id="XMLID_177_"><g
           id="XMLID_178_"><g
             id="XMLID_179_"><path
               id="XMLID_180_"
               class="st3"
               d="m -1272,240.8 c -2.1,0 -3.8,1.7 -3.8,3.8 l 0,72.1 -47.9,-73.5 c -0.9,-1.4 -2.7,-2 -4.3,-1.6 -1.6,0.5 -2.8,1.9 -2.8,3.6 l 0,84.2 c 0,2.1 1.7,3.8 3.8,3.8 2.1,0 3.8,-1.7 3.8,-3.8 l 0,-71.5 47.7,73.5 c 0.7,1.1 1.9,1.7 3.2,1.7 0.4,0 0.9,0 1.2,-0.2 1.6,-0.5 2.8,-1.9 2.8,-3.6 l 0,-84.8 c 0.1,-2 -1.6,-3.7 -3.7,-3.7 z"
               style="fill:#465777;fill-opacity:1" /></g></g></g><g
         id="XMLID_173_"><g
           id="XMLID_174_"><g
             id="XMLID_175_"><path
               id="XMLID_176_"
               class="st3"
               d="m -1183.9,248.2 c 2.1,0 3.8,-1.7 3.8,-3.8 0,-2.1 -1.7,-3.8 -3.8,-3.8 l -54.7,0 c -2.1,0 -3.1,2.5 -3.1,4.6 l 0,84.2 c 0,2.1 1.1,4 3.1,4 l 54.7,0 c 2.1,0 3.8,-1.7 3.8,-3.8 0,-2.1 -1.7,-3.8 -3.8,-3.8 l -50.2,0 0,-34.1 39.1,0 c 2.1,0 3.8,-1.7 3.8,-3.8 0,-2.1 -1.7,-3.8 -3.8,-3.8 l -39.1,0 0,-36 50.2,0 z"
               style="fill:#465777;fill-opacity:1" /></g></g></g><g
         id="XMLID_142_"><g
           id="XMLID_145_"><g
             id="XMLID_146_"><path
               id="XMLID_147_"
               class="st3"
               d="m -1000.8,248.2 c 2.1,0 3.8,-1.7 3.8,-3.8 0,-2.1 -1.7,-3.8 -3.8,-3.8 l -43.6,0 c -2.1,0 -4.1,2.5 -4.1,4.6 l 0,84.2 c 0,2.1 1.7,3.8 3.8,3.8 2.1,0 3.8,-1.7 3.8,-3.8 l 0,-37.6 40.1,0 c 2.1,0 3.8,-1.7 3.8,-3.8 0,-2.1 -1.7,-3.8 -3.8,-3.8 l -40.1,0 0,-36 40.1,0 z"
               style="fill:#465777;fill-opacity:1" /></g></g></g><g
         id="XMLID_132_"><g
           id="XMLID_138_"><g
             id="XMLID_139_"><path
               id="XMLID_140_"
               class="st3"
               d="m -1110.1,240.6 -54.7,0 c -2.1,0 -3.8,1.7 -3.8,3.8 0,2.1 1.7,3.8 3.8,3.8 l 23.5,0 0,81.2 c 0,2.1 1.7,3.8 3.8,3.8 2.1,0 3.8,-1.7 3.8,-3.8 l 0,-81.2 23.6,0 c 2.1,0 3.8,-1.7 3.8,-3.8 0,-2.1 -1.7,-3.8 -3.8,-3.8 z"
               style="fill:#465777;fill-opacity:1" /></g></g></g><g
         id="XMLID_128_"><g
           id="XMLID_129_"><g
             id="XMLID_130_"><path
               id="XMLID_131_"
               class="st3"
               d="m -1082.6,240.8 c -2.1,0 -3.8,1.7 -3.8,3.8 l 0,84.8 c 0,2.1 1.7,3.8 3.8,3.8 2.1,0 3.8,-1.7 3.8,-3.8 l 0,-84.8 c 0,-2.1 -1.7,-3.8 -3.8,-3.8 z"
               style="fill:#465777;fill-opacity:1" /></g></g></g><g
         id="XMLID_124_"><g
           id="XMLID_125_"><g
             id="XMLID_126_"><path
               id="XMLID_127_"
               class="st3"
               d="m -922,241.3 c -1.8,-1.1 -4.1,-0.5 -5.2,1.2 l -24.6,40.1 -25.3,-40.1 c -1.1,-1.8 -3.4,-2.3 -5.2,-1.2 -1.8,1.1 -2.4,3.4 -1.3,5.2 l 27.9,44.3 0,38.5 c 0,2.1 1.7,3.8 3.8,3.8 2.1,0 3.8,-1.7 3.8,-3.8 l 0,-38.5 27.3,-44.3 c 1.1,-1.8 0.6,-4.1 -1.2,-5.2 z"
               style="fill:#465777;fill-opacity:1" /></g></g></g></g><g
       id="XMLID_64_"
       class="st2"
       style="opacity:0.8"><path
         id="XMLID_121_"
         class="st3"
         d="m -1329.7,370.9 c -0.2,-0.2 -0.3,-0.4 -0.3,-0.7 l 0,-22.4 c 0,-0.3 0.1,-0.5 0.3,-0.7 0.2,-0.2 0.4,-0.3 0.6,-0.3 0.3,0 0.5,0.1 0.7,0.3 l 15,20.5 0,-19.9 c 0,-0.3 0.1,-0.5 0.3,-0.7 0.2,-0.2 0.4,-0.3 0.6,-0.3 0.2,0 0.4,0.1 0.6,0.3 0.2,0.2 0.3,0.4 0.3,0.7 l 0,22.4 c 0,0.3 -0.1,0.5 -0.3,0.7 -0.2,0.2 -0.4,0.3 -0.6,0.3 -0.3,0 -0.5,-0.1 -0.7,-0.3 l -15.1,-20.6 0,19.9 c 0,0.3 -0.1,0.5 -0.3,0.7 -0.2,0.2 -0.4,0.3 -0.6,0.3 -0.1,0 -0.4,-0.1 -0.5,-0.2 z"
         style="fill:#465777;fill-opacity:1" /><path
         id="XMLID_119_"
         class="st3"
         d="m -1304.2,370.9 c -0.2,-0.2 -0.3,-0.4 -0.3,-0.7 l 0,-22.4 c 0,-0.3 0.1,-0.5 0.3,-0.7 0.2,-0.2 0.4,-0.3 0.6,-0.3 l 14.2,0 c 0.2,0 0.4,0.1 0.6,0.3 0.2,0.2 0.3,0.4 0.3,0.7 0,0.2 -0.1,0.5 -0.3,0.7 -0.2,0.2 -0.4,0.3 -0.6,0.3 l -13.4,0 0,9.3 9.8,0 c 0.3,0 0.5,0.1 0.6,0.3 0.2,0.2 0.3,0.4 0.3,0.7 0,0.3 -0.1,0.5 -0.3,0.7 -0.2,0.2 -0.4,0.3 -0.6,0.3 l -9.8,0 0,9.3 13.4,0 c 0.2,0 0.4,0.1 0.6,0.3 0.2,0.2 0.3,0.4 0.3,0.7 0,0.3 -0.1,0.5 -0.3,0.7 -0.2,0.2 -0.4,0.3 -0.6,0.3 l -14.2,0 c -0.2,-0.3 -0.4,-0.4 -0.6,-0.5 z"
         style="fill:#465777;fill-opacity:1" /><path
         id="XMLID_117_"
         class="st3"
         d="m -1267.2,347.1 c 0.1,0.2 0.2,0.4 0.2,0.6 0,0.2 -0.1,0.4 -0.2,0.6 -0.1,0.2 -0.3,0.2 -0.6,0.2 l -7.5,0 0,21.7 c 0,0.3 -0.1,0.5 -0.3,0.7 -0.2,0.2 -0.4,0.3 -0.6,0.3 -0.3,0 -0.5,-0.1 -0.6,-0.3 -0.2,-0.2 -0.3,-0.4 -0.3,-0.7 l 0,-21.7 -7.5,0 c -0.2,0 -0.4,-0.1 -0.6,-0.2 -0.1,-0.2 -0.2,-0.4 -0.2,-0.6 0,-0.2 0.1,-0.5 0.2,-0.6 0.1,-0.2 0.3,-0.2 0.6,-0.2 l 16.8,0 c 0.2,0 0.4,0 0.6,0.2 z"
         style="fill:#465777;fill-opacity:1" /><path
         id="XMLID_115_"
         class="st3"
         d="m -1238.6,347.1 c 0.2,0.2 0.2,0.4 0.2,0.7 0,0.1 0,0.2 -0.1,0.4 l -6.1,22.1 c -0.1,0.2 -0.2,0.4 -0.4,0.6 -0.2,0.1 -0.4,0.2 -0.5,0.2 -0.2,0 -0.4,-0.1 -0.6,-0.2 -0.2,-0.1 -0.3,-0.3 -0.3,-0.6 l -5,-18.7 -5,18.7 c -0.2,0.5 -0.5,0.8 -0.9,0.8 -0.2,0 -0.4,-0.1 -0.6,-0.2 -0.2,-0.2 -0.3,-0.3 -0.3,-0.6 l -6.1,-22.1 c 0,-0.2 -0.1,-0.3 -0.1,-0.4 0,-0.3 0.1,-0.5 0.2,-0.7 0.2,-0.2 0.4,-0.3 0.6,-0.3 0.5,0 0.7,0.2 0.9,0.7 l 5.4,19.5 5.1,-18.6 c 0,-0.2 0.1,-0.3 0.3,-0.4 0.2,-0.1 0.3,-0.2 0.5,-0.2 0.2,0 0.4,0.1 0.5,0.2 0.2,0.1 0.3,0.3 0.3,0.5 l 5.1,18.6 5.4,-19.5 c 0,-0.2 0.1,-0.3 0.3,-0.5 0.2,-0.1 0.3,-0.2 0.6,-0.2 0.2,0 0.4,0 0.6,0.2 z"
         style="fill:#465777;fill-opacity:1" /><path
         id="XMLID_112_"
         class="st3"
         d="m -1230.1,369.8 c -1.8,-1.1 -3.2,-2.6 -4.3,-4.5 -1,-1.9 -1.6,-4 -1.6,-6.4 0,-2.3 0.5,-4.4 1.6,-6.3 1,-1.9 2.5,-3.4 4.3,-4.5 1.8,-1.1 3.8,-1.6 6.1,-1.6 2.2,0 4.2,0.5 6,1.6 1.8,1.1 3.2,2.6 4.3,4.5 1,1.9 1.6,4 1.6,6.3 0,2.3 -0.5,4.5 -1.6,6.4 -1,1.9 -2.5,3.4 -4.3,4.5 -1.8,1.1 -3.8,1.6 -6,1.6 -2.3,0 -4.3,-0.5 -6.1,-1.6 z m 11.2,-1.6 c 1.5,-0.9 2.7,-2.2 3.6,-3.8 0.9,-1.6 1.3,-3.4 1.3,-5.4 0,-2 -0.4,-3.8 -1.3,-5.4 -0.9,-1.6 -2.1,-2.9 -3.6,-3.8 -1.5,-0.9 -3.2,-1.4 -5.1,-1.4 -1.9,0 -3.6,0.5 -5.2,1.4 -1.5,0.9 -2.7,2.2 -3.6,3.8 -0.9,1.6 -1.3,3.4 -1.3,5.4 0,2 0.4,3.8 1.3,5.4 0.9,1.6 2.1,2.9 3.6,3.8 1.5,0.9 3.3,1.4 5.2,1.4 1.8,0 3.5,-0.5 5.1,-1.4 z"
         style="fill:#465777;fill-opacity:1" /><path
         id="XMLID_109_"
         class="st3"
         d="m -1191.9,370.4 c 0,0.2 -0.1,0.4 -0.3,0.5 -0.2,0.1 -0.4,0.2 -0.7,0.2 -0.2,0 -0.4,0 -0.5,-0.1 -0.1,-0.1 -0.2,-0.2 -0.3,-0.4 l -5.4,-9.1 -0.5,0 -4.8,0 0,8.7 c 0,0.3 -0.1,0.5 -0.2,0.7 -0.2,0.2 -0.4,0.3 -0.6,0.3 -0.3,0 -0.5,-0.1 -0.6,-0.3 -0.2,-0.2 -0.3,-0.4 -0.3,-0.7 l 0,-22.4 c 0,-0.3 0.1,-0.5 0.3,-0.7 0.2,-0.2 0.4,-0.2 0.6,-0.2 l 5.7,0 c 1.4,0 2.7,0.3 3.8,0.9 1.1,0.6 2,1.5 2.6,2.6 0.6,1.1 0.9,2.4 0.9,3.8 0,1.7 -0.5,3.2 -1.3,4.4 -0.9,1.2 -2.1,2.1 -3.6,2.5 l 5.1,8.5 c 0,0.4 0.1,0.6 0.1,0.8 z m -7.8,-10.8 c 1.1,0 2.1,-0.2 2.9,-0.7 0.8,-0.5 1.5,-1.1 2,-1.9 0.5,-0.8 0.7,-1.8 0.7,-2.8 0,-1.1 -0.2,-2 -0.7,-2.8 -0.5,-0.8 -1.2,-1.5 -2,-2 -0.8,-0.5 -1.8,-0.7 -2.9,-0.7 l -4.8,0 0,10.9 4.8,0 z"
         style="fill:#465777;fill-opacity:1" /><path
         id="XMLID_107_"
         class="st3"
         d="m -1186.7,370.9 c -0.2,-0.2 -0.3,-0.4 -0.3,-0.7 l 0,-22.4 c 0,-0.3 0.1,-0.5 0.3,-0.7 0.2,-0.2 0.4,-0.3 0.6,-0.3 0.3,0 0.5,0.1 0.6,0.3 0.2,0.2 0.3,0.4 0.3,0.7 l 0,11.4 11.5,-12.1 c 0.2,-0.2 0.4,-0.3 0.7,-0.3 0.3,0 0.5,0.1 0.6,0.3 0.2,0.2 0.3,0.4 0.3,0.7 0,0.2 -0.1,0.5 -0.3,0.7 l -8.5,8.9 8.6,12.2 c 0.1,0.2 0.2,0.4 0.2,0.6 0,0.2 -0.1,0.5 -0.3,0.7 -0.2,0.2 -0.4,0.3 -0.6,0.3 -0.3,0 -0.6,-0.1 -0.8,-0.4 l -8.4,-12 -3,3.1 0,8.3 c 0,0.3 -0.1,0.5 -0.3,0.7 -0.2,0.2 -0.4,0.3 -0.6,0.3 -0.2,-0.1 -0.4,-0.2 -0.6,-0.3 z"
         style="fill:#465777;fill-opacity:1" /><path
         id="XMLID_105_"
         class="st3"
         d="m -1156.3,370.9 c -0.2,-0.2 -0.3,-0.4 -0.3,-0.7 l 0,-22.4 c 0,-0.3 0.1,-0.5 0.3,-0.7 0.2,-0.2 0.4,-0.3 0.6,-0.3 0.3,0 0.5,0.1 0.6,0.3 0.2,0.2 0.3,0.4 0.3,0.7 l 0,22.4 c 0,0.3 -0.1,0.5 -0.3,0.7 -0.2,0.2 -0.4,0.3 -0.6,0.3 -0.2,-0.1 -0.5,-0.2 -0.6,-0.3 z"
         style="fill:#465777;fill-opacity:1" /><path
         id="XMLID_103_"
         class="st3"
         d="m -1147.4,370.9 c -0.2,-0.2 -0.3,-0.4 -0.3,-0.7 l 0,-22.4 c 0,-0.3 0.1,-0.5 0.3,-0.7 0.2,-0.2 0.4,-0.3 0.6,-0.3 0.3,0 0.5,0.1 0.7,0.3 l 15,20.5 0,-19.9 c 0,-0.3 0.1,-0.5 0.3,-0.7 0.2,-0.2 0.4,-0.3 0.6,-0.3 0.2,0 0.4,0.1 0.6,0.3 0.2,0.2 0.3,0.4 0.3,0.7 l 0,22.4 c 0,0.3 -0.1,0.5 -0.3,0.7 -0.2,0.2 -0.4,0.3 -0.6,0.3 -0.3,0 -0.5,-0.1 -0.7,-0.3 l -15.1,-20.6 0,19.9 c 0,0.3 -0.1,0.5 -0.3,0.7 -0.2,0.2 -0.4,0.3 -0.6,0.3 -0.1,0 -0.3,-0.1 -0.5,-0.2 z"
         style="fill:#465777;fill-opacity:1" /><path
         id="XMLID_101_"
         class="st3"
         d="m -1106.4,347.1 c 0.1,0.2 0.2,0.4 0.2,0.6 0,0.2 -0.1,0.4 -0.2,0.6 -0.1,0.2 -0.3,0.2 -0.6,0.2 l -7.5,0 0,21.7 c 0,0.3 -0.1,0.5 -0.3,0.7 -0.2,0.2 -0.4,0.3 -0.6,0.3 -0.2,0 -0.5,-0.1 -0.6,-0.3 -0.2,-0.2 -0.3,-0.4 -0.3,-0.7 l 0,-21.7 -7.5,0 c -0.2,0 -0.4,-0.1 -0.6,-0.2 -0.1,-0.2 -0.2,-0.4 -0.2,-0.6 0,-0.2 0.1,-0.5 0.2,-0.6 0.1,-0.2 0.3,-0.2 0.6,-0.2 l 16.8,0 c 0.2,0 0.4,0 0.6,0.2 z"
         style="fill:#465777;fill-opacity:1" /><path
         id="XMLID_99_"
         class="st3"
         d="m -1101.3,370.9 c -0.2,-0.2 -0.3,-0.4 -0.3,-0.7 l 0,-22.4 c 0,-0.3 0.1,-0.5 0.3,-0.7 0.2,-0.2 0.4,-0.3 0.6,-0.3 l 14.2,0 c 0.2,0 0.4,0.1 0.6,0.3 0.2,0.2 0.3,0.4 0.3,0.7 0,0.2 -0.1,0.5 -0.3,0.7 -0.2,0.2 -0.4,0.3 -0.6,0.3 l -13.4,0 0,9.3 9.8,0 c 0.3,0 0.5,0.1 0.6,0.3 0.2,0.2 0.3,0.4 0.3,0.7 0,0.3 -0.1,0.5 -0.3,0.7 -0.2,0.2 -0.4,0.3 -0.6,0.3 l -9.8,0 0,9.3 13.4,0 c 0.2,0 0.4,0.1 0.6,0.3 0.2,0.2 0.3,0.4 0.3,0.7 0,0.3 -0.1,0.5 -0.3,0.7 -0.2,0.2 -0.4,0.3 -0.6,0.3 l -14.2,0 c -0.2,-0.3 -0.4,-0.4 -0.6,-0.5 z"
         style="fill:#465777;fill-opacity:1" /><path
         id="XMLID_97_"
         class="st3"
         d="m -1079.7,370.9 c -0.2,-0.2 -0.3,-0.4 -0.3,-0.7 l 0,-22.4 c 0,-0.3 0.1,-0.5 0.3,-0.7 0.2,-0.2 0.4,-0.3 0.6,-0.3 0.3,0 0.5,0.1 0.6,0.3 0.2,0.2 0.3,0.4 0.3,0.7 l 0,21.7 12.2,0 c 0.3,0 0.5,0.1 0.6,0.2 0.2,0.2 0.3,0.4 0.3,0.6 0,0.2 -0.1,0.4 -0.3,0.6 -0.2,0.2 -0.4,0.2 -0.6,0.2 l -13.1,0 c -0.2,0 -0.4,-0.1 -0.6,-0.2 z"
         style="fill:#465777;fill-opacity:1" /><path
         id="XMLID_95_"
         class="st3"
         d="m -1059.9,370.9 c -0.2,-0.2 -0.3,-0.4 -0.3,-0.7 l 0,-22.4 c 0,-0.3 0.1,-0.5 0.3,-0.7 0.2,-0.2 0.4,-0.3 0.6,-0.3 0.3,0 0.5,0.1 0.6,0.3 0.2,0.2 0.3,0.4 0.3,0.7 l 0,21.7 12.2,0 c 0.3,0 0.5,0.1 0.6,0.2 0.2,0.2 0.3,0.4 0.3,0.6 0,0.2 -0.1,0.4 -0.3,0.6 -0.2,0.2 -0.4,0.2 -0.6,0.2 l -13.1,0 c -0.2,0 -0.4,-0.1 -0.6,-0.2 z"
         style="fill:#465777;fill-opacity:1" /><path
         id="XMLID_93_"
         class="st3"
         d="m -1040.1,370.9 c -0.2,-0.2 -0.3,-0.4 -0.3,-0.7 l 0,-22.4 c 0,-0.3 0.1,-0.5 0.3,-0.7 0.2,-0.2 0.4,-0.3 0.6,-0.3 0.3,0 0.5,0.1 0.6,0.3 0.2,0.2 0.3,0.4 0.3,0.7 l 0,22.4 c 0,0.3 -0.1,0.5 -0.3,0.7 -0.2,0.2 -0.4,0.3 -0.6,0.3 -0.2,-0.1 -0.4,-0.2 -0.6,-0.3 z"
         style="fill:#465777;fill-opacity:1" /><path
         id="XMLID_91_"
         class="st3"
         d="m -1013.7,359.6 c 0.2,0.2 0.3,0.4 0.3,0.7 l 0,7.9 c 0,0.1 0,0.3 0,0.4 0,0.1 -0.1,0.2 -0.2,0.3 -1.7,1.8 -4.1,2.7 -7.3,2.7 -2.1,0 -4,-0.6 -5.8,-1.7 -1.8,-1.1 -3.2,-2.7 -4.2,-4.6 -1,-1.9 -1.6,-4 -1.6,-6.2 0,-2.2 0.5,-4.3 1.6,-6.2 1,-1.9 2.4,-3.4 4.2,-4.6 1.8,-1.1 3.7,-1.7 5.8,-1.7 2.8,0 5.2,0.9 7.3,2.8 0.2,0.1 0.3,0.4 0.3,0.6 0,0.2 -0.1,0.5 -0.2,0.7 -0.2,0.2 -0.4,0.3 -0.7,0.3 -0.2,0 -0.5,-0.1 -0.7,-0.4 -1.5,-1.4 -3.5,-2.1 -6,-2.1 -1.7,0 -3.4,0.5 -4.9,1.5 -1.5,1 -2.7,2.3 -3.6,3.9 -0.9,1.6 -1.3,3.4 -1.3,5.2 0,1.9 0.4,3.7 1.3,5.3 0.9,1.6 2.1,2.9 3.6,3.9 1.5,1 3.1,1.4 4.9,1.4 2.2,0 4.1,-0.6 5.7,-1.9 l 0,-6.8 -5,0 c -0.3,0 -0.5,-0.1 -0.6,-0.2 -0.2,-0.2 -0.3,-0.4 -0.3,-0.6 0,-0.2 0.1,-0.4 0.3,-0.6 0.2,-0.2 0.4,-0.2 0.6,-0.2 l 5.9,0 c 0.2,-0.1 0.4,0 0.6,0.2 z"
         style="fill:#465777;fill-opacity:1" /><path
         id="XMLID_73_"
         class="st3"
         d="m -1007.1,370.9 c -0.2,-0.2 -0.3,-0.4 -0.3,-0.7 l 0,-22.4 c 0,-0.3 0.1,-0.5 0.3,-0.7 0.2,-0.2 0.4,-0.3 0.6,-0.3 l 14.2,0 c 0.2,0 0.4,0.1 0.6,0.3 0.2,0.2 0.3,0.4 0.3,0.7 0,0.2 -0.1,0.5 -0.3,0.7 -0.2,0.2 -0.4,0.3 -0.6,0.3 l -13.4,0 0,9.3 9.8,0 c 0.3,0 0.5,0.1 0.6,0.3 0.2,0.2 0.3,0.4 0.3,0.7 0,0.3 -0.1,0.5 -0.3,0.7 -0.2,0.2 -0.4,0.3 -0.6,0.3 l -9.8,0 0,9.3 13.4,0 c 0.2,0 0.4,0.1 0.6,0.3 0.2,0.2 0.3,0.4 0.3,0.7 0,0.3 -0.1,0.5 -0.3,0.7 -0.2,0.2 -0.4,0.3 -0.6,0.3 l -14.2,0 c -0.3,-0.3 -0.5,-0.4 -0.6,-0.5 z"
         style="fill:#465777;fill-opacity:1" /><path
         id="XMLID_71_"
         class="st3"
         d="m -985.6,370.9 c -0.2,-0.2 -0.3,-0.4 -0.3,-0.7 l 0,-22.4 c 0,-0.3 0.1,-0.5 0.3,-0.7 0.2,-0.2 0.4,-0.3 0.6,-0.3 0.3,0 0.5,0.1 0.7,0.3 l 15,20.5 0,-19.9 c 0,-0.3 0.1,-0.5 0.3,-0.7 0.2,-0.2 0.4,-0.3 0.6,-0.3 0.2,0 0.4,0.1 0.6,0.3 0.2,0.2 0.3,0.4 0.3,0.7 l 0,22.4 c 0,0.3 -0.1,0.5 -0.3,0.7 -0.2,0.2 -0.4,0.3 -0.6,0.3 -0.3,0 -0.5,-0.1 -0.7,-0.3 l -15.1,-20.6 0,19.9 c 0,0.3 -0.1,0.5 -0.3,0.7 -0.2,0.2 -0.4,0.3 -0.6,0.3 -0.1,0 -0.3,-0.1 -0.5,-0.2 z"
         style="fill:#465777;fill-opacity:1" /><path
         id="XMLID_69_"
         class="st3"
         d="m -955.6,369.7 c -1.8,-1.1 -3.2,-2.7 -4.2,-4.6 -1,-1.9 -1.6,-4 -1.6,-6.2 0,-2.2 0.5,-4.3 1.6,-6.2 1,-1.9 2.4,-3.4 4.2,-4.6 1.8,-1.1 3.7,-1.7 5.8,-1.7 2.8,0 5.2,0.9 7.3,2.8 0.2,0.1 0.3,0.4 0.3,0.6 0,0.2 -0.1,0.5 -0.2,0.7 -0.2,0.2 -0.4,0.3 -0.7,0.3 -0.2,0 -0.5,-0.1 -0.7,-0.4 -1.5,-1.4 -3.5,-2.1 -6,-2.1 -1.7,0 -3.4,0.5 -4.9,1.5 -1.5,1 -2.7,2.3 -3.6,3.9 -0.9,1.6 -1.3,3.4 -1.3,5.2 0,1.9 0.4,3.7 1.3,5.3 0.9,1.6 2.1,2.9 3.6,3.9 1.5,1 3.1,1.4 4.9,1.4 2.3,0 4.4,-0.8 6.1,-2.3 0.1,-0.1 0.3,-0.2 0.4,-0.2 0.2,0 0.4,0.1 0.6,0.3 0.2,0.2 0.3,0.4 0.3,0.7 0,0.3 -0.1,0.5 -0.2,0.7 -1.7,1.8 -4.1,2.7 -7.3,2.7 -2,0 -3.9,-0.5 -5.7,-1.7 z"
         style="fill:#465777;fill-opacity:1" /><path
         id="XMLID_66_"
         class="st3"
         d="m -936,370.9 c -0.2,-0.2 -0.3,-0.4 -0.3,-0.7 l 0,-22.4 c 0,-0.3 0.1,-0.5 0.3,-0.7 0.2,-0.2 0.4,-0.3 0.6,-0.3 l 14.2,0 c 0.2,0 0.4,0.1 0.6,0.3 0.2,0.2 0.3,0.4 0.3,0.7 0,0.2 -0.1,0.5 -0.3,0.7 -0.2,0.2 -0.4,0.3 -0.6,0.3 l -13.4,0 0,9.3 9.8,0 c 0.3,0 0.5,0.1 0.6,0.3 0.2,0.2 0.3,0.4 0.3,0.7 0,0.3 -0.1,0.5 -0.3,0.7 -0.2,0.2 -0.4,0.3 -0.6,0.3 l -9.8,0 0,9.3 13.4,0 c 0.2,0 0.4,0.1 0.6,0.3 0.2,0.2 0.3,0.4 0.3,0.7 0,0.3 -0.1,0.5 -0.3,0.7 -0.2,0.2 -0.4,0.3 -0.6,0.3 l -14.2,0 c -0.2,-0.3 -0.4,-0.4 -0.6,-0.5 z"
         style="fill:#465777;fill-opacity:1" /></g><g
       id="XMLID_7_"><path
         id="XMLID_28_"
         class="st1"
         d="m -1416.3,338.3 c -0.1,-0.1 -0.1,-0.2 -0.2,-0.3 0,0.1 0.1,0.2 0.2,0.3 z"
         style="fill:#fca53d" /><path
         id="XMLID_11_"
         class="st1"
         d="m -1504.4,368.7 c 3,-20.4 6.3,-40.6 9.8,-60.8 1.9,-11 3.9,-22 5.9,-33 0,0.2 0.1,-0.5 0.1,-0.6 0.1,-0.3 0.2,-0.6 0.2,-0.9 0.5,-1.7 1.3,-3.3 2.3,-4.7 2.3,-3.1 5.8,-5.1 9.6,-5.7 3.6,-0.6 7.4,0.2 10.4,2.3 2.3,1.5 3.9,3.7 5.4,5.9 9.5,14.2 19,28.4 28.3,42.7 2.8,4.2 5.5,8.4 8.2,12.6 1.4,2.1 2.8,4.3 4.1,6.4 1,1.5 1.9,3.2 3,4.7 0.1,0.1 0.2,0.3 0.3,0.4 0.5,0 0.9,0.3 1.3,-0.3 0.4,-0.6 0.4,-1.7 0.6,-2.3 0.6,-2.8 1.3,-5.7 1.9,-8.5 1.2,-5.5 2.5,-11 3.8,-16.4 2.5,-10.8 5.1,-21.4 7.8,-32.2 3.7,-14.9 7.5,-29.6 11.5,-44.6 l -141.6,0 c -3.1,0 -4.7,2.2 -4.7,5.3 l 0,134.6 c 0,3.1 1.6,5.2 4.7,5.2 l 25.5,0 c 0.6,-3.1 1.1,-6.7 1.6,-10.1 z"
         style="fill:#fca53d" /><path
         id="XMLID_8_"
         class="st1"
         d="m -1358,233.7 -25.4,0 c -0.2,2 -0.5,3.2 -0.7,4.9 -2.9,19.4 -6.1,38.6 -9.5,57.9 -1.7,9.9 -3.5,19.8 -5.4,29.7 -0.9,4.8 -1.6,9.6 -2.7,14.3 -0.7,3.3 -2.4,6.2 -5,8.4 -6.2,5.2 -15.7,4.3 -20.9,-1.8 -1.9,-2.2 -3.3,-4.8 -4.9,-7.1 -2.9,-4.3 -5.7,-8.6 -8.6,-12.9 -10.8,-16.3 -21.4,-32.6 -32,-49 -0.4,-0.6 -1.2,-1.9 -2,-0.9 0.1,-0.1 0.1,-0.2 0.1,-0.3 0,0.3 -0.3,0.8 -0.3,1.1 -0.9,3.7 -1.6,7.4 -2.4,11 -1.3,5.6 -2.5,11.2 -3.8,16.7 -2.4,10.5 -4.9,20.8 -7.4,31.3 -3.4,14 -6.9,27.7 -10.5,41.7 l 141.5,0 c 3.1,0 7,-2.1 7,-5.2 l 0,-134.5 c -0.1,-3.1 -4,-5.3 -7.1,-5.3 z"
         style="fill:#fca53d" /></g></g></svg>